/* XPM */
static char * digits_xpm[] = {
"220 30 11 1",
" 	c None",
".	c #000000",
"+	c #8D8D8D",
"@	c #AAAAAA",
"#	c #717171",
"$	c #555555",
"%	c #383838",
"&	c #FFFFFF",
"*	c #1C1C1C",
"=	c #E2E2E2",
"-	c #C6C6C6",
"............................................................................................................................................................................................................................",
"............................................................................................................................................................................................................................",
"............................................................................................................................................................................................................................",
".....+@@@@@@@@@@@@#.........$@@@@@%..........+@@@@@@@@@@@@#...%@@@@@@@@@@@+.................$@@@@#....%@@@@@@@@@@@@@@@#......$@@@@@@@@@@......%@@@@@@@@@@@@@@@#......+@@@@@@@@@@@@#......$@@@@@@@@@@@@#.....................",
"....@&&&&&&&&&&&&&@........$&&&&&&$.........@&&&&&&&&&&&&&@...$&&&&&&&&&&&&@...............$&&&&&@....$&&&&&&&&&&&&&&&@.....$&&&&&&&&&&&......$&&&&&&&&&&&&&&&@.....@&&&&&&&&&&&&&@.....@&&&&&&&&&&&&&@.....................",
"...@&&&&&&&&&&&&&&@.......$&&&&&&&$........@&&&&&&&&&&&&&&@...$&&&&&&&&&&&&&@.............$&&&&&&@....$&&&&&&&&&&&&&&&@....$&&&&&&&&&&&&......$&&&&&&&&&&&&&&&@....@&&&&&&&&&&&&&&@....@&&&&&&&&&&&&&&@.....................",
"..$&&&&&.....@&&&&@.......@&&&&&&&$.......$&&$.......@&&&&@............*=&&&&+...........$&&&&&&&@....$&&&&&..............%&&&&&.........................@&&&&@...$&&&&&.....@&&&&@...$&&&&&.....@&&&&@.....................",
"..$&&&&&.....@&&&&@.......@&&&&&&&$.......$&&$.......@&&&&@.............@&&&&@..........$&&&&&&&&@....$&&&&&..............$&&&&&.........................@&&&&@...$&&&&&.....@&&&&@...$&&&&&.....@&&&&@.....................",
"..$&&&&&.....@&&&&@.......#@@&&&&&$.......%@@%.......@&&&&@.............@&&&&@.........$&&&@@&&&&@....$&&&&&..............$&&&&&.........................@&&&&@...$&&&&&.....@&&&&@...$&&&&&.....@&&&&@.....................",
"..$&&&&&.....@&&&&@..........&&&&&$..................@&&&&@.............@&&&&@........$&&&@.@&&&&@....$&&&&&..............$&&&&&.........................@&&&&@...$&&&&&.....@&&&&@...$&&&&&.....@&&&&@.....................",
"..$&&&&&.....@&&&&@..........&&&&&$..................@&&&&@.............-&&&&@.......$&&&@..@&&&&@....$&&&&&..............$&&&&&.........................@&&&&@...$&&&&&.....@&&&&@...$&&&&&.....@&&&&@.....................",
"..$&&&&&.....@&&&&@..........&&&&&$..................@&&&&@......#@@@@@-&&&&=*......$&&&@...@&&&&@....$&&&&&@@@@@@@@@@#...$&&&&&@@@@@@@@@@#..............@&&&&@...$&&&&&.....@&&&&+...$&&&&&.....@&&&&@.....................",
"..$&&&&&.....@&&&&@..........&&&&&$.................*=&&&&@......@&&&&&&&&&&*......$&&&@....@&&&&@....$&&&&&&&&&&&&&&&@...$&&&&&&&&&&&&&&&@.............$&&&&=*...$&&&&&.....@&&&@....$&&&&&.....@&&&&@.....................",
"..$&&&&&.....@&&&&@..........&&&&&$................*=&&&&&$......@&&&&&&&&&&@.....$&&&@.....@&&&&@....$&&&&&&&&&&&&&&&@...$&&&&&&&&&&&&&&&@............$&&&&=*....$&&&&&.....@&&@.....$&&&&&.....@&&&&@.....................",
"..$&&&&&.....@&&&&@..........&&&&&$...............*=&&&&&$.............*=&&&&+...%&&&&......@&&&&@...............@&&&&@...$&&&&&.....@&&&&@...........$&&&&=*........@&&&&&&&&&&&&@...$&&&&&.....@&&&&@.....................",
"..$&&&&&.....@&&&&@..........&&&&&$..............*=&&&&&$...............@&&&&@...$&&&&......@&&&&@...............@&&&&@...$&&&&&.....@&&&&@..........$&&&&=*........@&&&&&&&&&&&&&@...$&&&&&.....@&&&&@.....................",
"..$&&&&&.....@&&&&@..........&&&&&$.............*=&&&&&$................@&&&&@...$&&&&$$$$$$-&&&&-$*.............@&&&&@...$&&&&&.....@&&&&@.........$&&&&=*........@&&&&@@@@@=&&&&@...$&&&&&$$$$$-&&&&@.....................",
"..$&&&&&.....@&&&&@..........&&&&&$............*=&&&&&$.................@&&&&@...$&&&&&&&&&&&&&&&&&$.............@&&&&@...$&&&&&.....@&&&&@.........&&&&&$........$&&&&&.....@&&&&@...$&&&&&&&&&&&&&&&@.....................",
"..$&&&&&.....@&&&&@..........&&&&&$...........*=&&&&&$..................@&&&&@...$&&&&&&&&&&&&&&&&&$.............@&&&&@...$&&&&&.....@&&&&@.........&&&&&$........$&&&&&.....@&&&&@...$&&&&&&&&&&&&&&&@.....................",
"..$&&&&&.....@&&&&@..........&&&&&$..........*=&&&&&$...................@&&&&@...*$$$$$$$$$$-&&&&-$*.............@&&&&@...$&&&&&.....@&&&&@.........&&&&&$........$&&&&&.....@&&&&@...*$$$$$$$$$$-&&&&@.....................",
"..$&&&&&.....@&&&&@..........&&&&&$.........*=&&&&&$....................@&&&&@..............@&&&&@...............@&&&&@...$&&&&&.....@&&&&@.........&&&&&$........$&&&&&.....@&&&&@..............@&&&&@.....................",
"..$&&&&&.....@&&&&@..........&&&&&$........*=&&&&&$.....................@&&&&@..............@&&&&@...............@&&&&@...$&&&&&.....@&&&&@.........&&&&&$........$&&&&&.....@&&&&@..............@&&&&@.....................",
"..$&&&&&.....@&&&&@..........&&&&&$.......*=&&&&&$......................@&&&&@..............@&&&&@...............@&&&&@...$&&&&&.....@&&&&@.........&&&&&$........$&&&&&.....@&&&&@..............@&&&&@.....................",
"..$&&&&&.....@&&&&@..........&&&&&$.......$&&&&&$.......................@&&&&@..............@&&&&@...............@&&&&@...$&&&&&.....@&&&&@.........&&&&&$........$&&&&&.....@&&&&@..............@&&&&@........$&&&&&.......",
"..$&&&&&$$$$$-&&&&@..........&&&&&$.......$&&&&&$$$$$$$$$$%....*$$$$$$$$-&&&&$..............@&&&&@.....*$$$$$$$$$-&&&&+...$&&&&&$$$$$-&&&&+.........&&&&&$........$&&&&&$$$$$-&&&&+......%$$$$$$$-&&&&@........$&&&&&.......",
"..$&&&&&&&&&&&&&&=*..........&&&&&$.......$&&&&&&&&&&&&&&&@....$&&&&&&&&&&&&$...............@&&&&@.....$&&&&&&&&&&&&&@....$&&&&&&&&&&&&&&@..........&&&&&$........$&&&&&&&&&&&&&&@.......@&&&&&&&&&&&&@........$&&&&&.......",
"..$&&&&&&&&&&&&&@*...........&&&&&$.......$&&&&&&&&&&&&&&&@....$&&&&&&&&&&&$................@&&&&@.....$&&&&&&&&&&&&@.....$&&&&&&&&&&&&&@...........&&&&&$........$&&&&&&&&&&&&&@........@&&&&&&&&&&&&@........$&&&&&.......",
"..*$$$$$$$$$$$$$.............$$$$$*.......*$$$$$$$$$$$$$$$%....*$$$$$$$$$$%.................%$$$$%.....*$$$$$$$$$$$$......*$$$$$$$$$$$$$............$$$$$*........*$$$$$$$$$$$$$.........%$$$$$$$$$$$$%........$&&&&&.......",
"...............................................................................................................................................................................................................*$$$$$.......",
"............................................................................................................................................................................................................................"};
