/* XPM */
static char * freq_up_xpm[] = {
"16 16 2 1",
" 	c None",
".	c #394959",
"                ",
"                ",
"        .       ",
"        .       ",
"        .       ",
"       ...      ",
" ...   . . .... ",
"   .   . ...    ",
"   .. ..  .     ",
"    . .   .     ",
"    . .         ",
"    ...         ",
"     .          ",
"     .          ",
"     .          ",
"                "};
