/* XPM */
static char * stereo_xpm[] = {
"70 30 3 1",
" 	c None",
".	c #000000",
"+	c #FFFFFF",
"......................................................................",
"......................................................................",
"......................................................................",
"....................................+++++++++++++++++++++++++++++++++.",
"...................................++...............................++",
"...................................+...+++.+++++.++++.+++..++++.++++.+",
"...................................+..+......+...+....+..+.+....+..+.+",
"...................................+..+......+...+....+..+.+....+..+.+",
"...................................+...++....+...++...+++..++...+..+.+",
"...................................+.....+...+...+....+..+.+....+..+.+",
"...................................+.....+...+...+....+..+.+....+..+.+",
"...................................+..+++....+...++++.+..+.++++.++++.+",
"...................................++...............................++",
"....................................+++++++++++++++++++++++++++++++++.",
"......................................................................",
"......................................................................",
".+++++++++++++++++++++++++++++++++....................................",
"++...............................++...................................",
"+......++.++.++++.+...+.++++......+...................................",
"+......+++++.+..+.++..+.+..+......+...................................",
"+......+.+.+.+..+.+++.+.+..+......+...................................",
"+......+.+.+.+..+.+++++.+..+......+...................................",
"+......+...+.+..+.+.+++.+..+......+...................................",
"+......+...+.+..+.+..++.+..+......+...................................",
"+......+...+.++++.+...+.++++......+...................................",
"++...............................++...................................",
".+++++++++++++++++++++++++++++++++....................................",
"......................................................................",
"......................................................................",
"......................................................................"};
